<svg width="1080" height="1080" viewBox="0 0 1080 1080" fill="none" xmlns="http://www.w3.org/2000/svg">
<rect width="1080" height="1080" fill="white"/>
<rect x="3" y="3" width="354" height="354" fill="#D3739C"/>
<path d="M211.678 270L178.398 217.776L146.398 270H122.078L167.39 200.368L122.078 129.712H148.446L181.726 181.68L213.47 129.712H237.79L192.734 199.088L238.046 270H211.678Z" fill="black"/>
<rect x="3" y="3" width="354" height="354" stroke="black" stroke-width="6"/>
<rect x="3" y="363" width="354" height="354" fill="#F7F3F3"/>
<rect x="3" y="363" width="354" height="354" stroke="black" stroke-width="6"/>
<rect x="3" y="723" width="354" height="354" fill="#F7F3F3"/>
<rect x="3" y="723" width="354" height="354" stroke="black" stroke-width="6"/>
<rect x="363" y="3" width="354" height="354" fill="#D3739C"/>
<path d="M571.678 270L538.398 217.776L506.398 270H482.078L527.39 200.368L482.078 129.712H508.446L541.726 181.68L573.47 129.712H597.79L552.734 199.088L598.046 270H571.678Z" fill="black"/>
<rect x="363" y="3" width="354" height="354" stroke="black" stroke-width="6"/>
<rect x="363" y="363" width="354" height="354" fill="#F7F3F3"/>
<rect x="363" y="363" width="354" height="354" stroke="black" stroke-width="6"/>
<rect x="363" y="723" width="354" height="354" fill="#F7F3F3"/>
<rect x="363" y="723" width="354" height="354" stroke="black" stroke-width="6"/>
<rect x="723" y="3" width="354" height="354" fill="#D3739C"/>
<path d="M931.678 270L898.398 217.776L866.398 270H842.078L887.39 200.368L842.078 129.712H868.446L901.726 181.68L933.47 129.712H957.79L912.734 199.088L958.046 270H931.678Z" fill="black"/>
<rect x="723" y="3" width="354" height="354" stroke="black" stroke-width="6"/>
<rect x="723" y="363" width="354" height="354" fill="#F7F3F3"/>
<rect x="723" y="363" width="354" height="354" stroke="black" stroke-width="6"/>
<rect x="723" y="723" width="354" height="354" fill="#F7F3F3"/>
<rect x="723" y="723" width="354" height="354" stroke="black" stroke-width="6"/>
<path d="M1004.42 547.425C1008.53 543.324 1008.53 536.676 1004.42 532.575L937.603 465.754C933.503 461.653 926.854 461.653 922.754 465.754C918.653 469.854 918.653 476.503 922.754 480.603L982.151 540L922.754 599.397C918.653 603.497 918.653 610.146 922.754 614.246C926.854 618.347 933.503 618.347 937.603 614.246L1004.42 547.425ZM97 550.5H997V529.5H97V550.5Z" fill="#D3739C"/>
</svg>
